<?xml version="1.0" encoding="utf-8"?>
<!-- Generator: Adobe Illustrator 17.0.0, SVG Export Plug-In . SVG Version: 6.00 Build 0)  -->
<!DOCTYPE svg PUBLIC "-//W3C//DTD SVG 1.1//EN" "http://www.w3.org/Graphics/SVG/1.1/DTD/svg11.dtd">
<svg version="1.1" id="Layer_1" xmlns="http://www.w3.org/2000/svg" xmlns:xlink="http://www.w3.org/1999/xlink" x="0px" y="0px"
	 width="126.25px" height="86.25px" viewBox="0 0 126.25 86.25" enable-background="new 0 0 126.25 86.25" xml:space="preserve">
<path fill="#FFFFFF" d="M111.31,28.782c0.193-1.228,0.297-2.487,0.297-3.769c0-13.348-10.82-24.169-24.169-24.169
	c-11.842,0-21.684,8.517-23.76,19.757c-0.911-0.156-1.844-0.242-2.798-0.242c-7.291,0-13.467,4.763-15.594,11.345
	c-2.127-6.582-8.304-11.345-15.595-11.345c-9.053,0-16.389,7.338-16.389,16.389c0,1.772,0.286,3.478,0.805,5.078
	C6.84,43.503,1.417,50.012,1.417,57.79c0,9.051,7.338,16.389,16.389,16.389c3.337,0,6.436-0.998,9.024-2.709
	c3.815,8.327,12.218,14.114,21.976,14.114c9.176,0,17.157-5.114,21.251-12.647c3.454,4.481,8.869,7.37,14.965,7.37
	c10.433,0,18.89-8.456,18.89-18.891c0-0.293-0.009-0.584-0.022-0.873c1.658,0.563,3.43,0.873,5.276,0.873
	c9.05,0,16.387-7.337,16.387-16.389C125.554,36.704,119.348,29.833,111.31,28.782z M74.7,45.55c0.013,0.009,0.024,0.017,0.039,0.025
	c-0.03,0.02-0.063,0.037-0.091,0.056C74.665,45.605,74.685,45.578,74.7,45.55z"/>
</svg>
